<svg xmlns="http://www.w3.org/2000/svg" viewBox="0 0 137.2 18.8" enable-background="new 0 0 137.2 18.8"><path fill="#FCFAFC" d="M2.6 4.4h1.3l2.8 4.9 2.8-4.9h1.3l.4 9.3h-1.2l-.3-7.1-2.7 4.4h-.6l-2.6-4.4-.3 7.1h-1.3l.4-9.3zM13.9 4.4h1.3v9.3h-1.3v-9.3zM17.9 4.4h1.4l5.1 7.3v-7.3h1.3v9.3h-1.3l-5.1-7.3v7.3h-1.3v-9.3zM28.4 4.4h1.3v9.3h-1.3v-9.3zM32.8 11.5c.1.1.3.3.4.5.2.2.3.3.6.4s.4.2.7.3c.3.1.5.1.8.1.6 0 1.1-.1 1.4-.4.3-.3.5-.7.5-1.1 0-.5-.2-.9-.6-1.2-.4-.3-1-.5-1.7-.6-.4-.1-.8-.2-1.1-.3-.3-.1-.6-.3-.8-.6-.2-.2-.4-.5-.6-.8-.1-.3-.2-.6-.2-1 0-.3.1-.7.2-1 .1-.3.3-.6.6-.8.3-.2.6-.4 1-.6s.8-.2 1.4-.2c.5 0 .9 0 1.2.1.3.1.6.2.8.4.3.1.5.3.6.4.1.2.2.3.3.4l-.9.8c-.1-.1-.1-.2-.3-.3s-.3-.2-.4-.3l-.6-.3c-.2-.1-.5-.1-.8-.1-.3 0-.6 0-.8.1-.2.1-.4.2-.5.3s-.2.3-.2.5c-.1.2-.1.3-.1.5s0 .4.1.6c.1.2.2.3.4.4.2.1.4.2.7.3l.9.3 1 .3c.3.1.6.3.9.5.3.2.5.5.6.8.2.3.2.7.2 1.2 0 .4-.1.8-.3 1.1s-.2.8-.5 1c-.3.2-.6.4-1 .6-.4.1-.8.2-1.3.2-.4 0-.8-.1-1.2-.2-.4-.1-.7-.2-1-.4-.3-.2-.6-.3-.8-.5-.2-.2-.4-.4-.5-.6l.9-.8zM43.3 5.6h-3.3v-1.2h8v1.2h-3.3v8.2h-1.3v-8.2zM50 4.4h3c.6 0 1.1.1 1.5.2.4.2.7.4 1 .6.3.3.4.5.6.9.1.3.2.7.2 1 0 .6-.1 1.1-.4 1.6s-.7.8-1.3 1l2.2 4h-1.5l-2-3.8h-1.9v3.8h-1.4v-9.3zm3.1 4.4c.6 0 1-.1 1.3-.4.3-.3.4-.7.4-1.2s-.2-.9-.5-1.2-.7-.4-1.3-.4h-1.8v3.2h1.9zM60.5 9.6l-3.2-5.2h1.5l2.4 4 2.4-4h1.4l-3.2 5.2v4.2h-1.4v-4.2zM74.3 14c-.7 0-1.3-.1-1.9-.4-.6-.3-1.1-.6-1.5-1.1s-.8-1-1-1.6-.4-1.2-.4-1.9.1-1.3.4-1.9.6-1.1 1-1.6.9-.8 1.5-1.1c.6-.3 1.2-.4 1.9-.4s1.3.1 1.9.4c.6.3 1.1.6 1.5 1.1.4.4.8 1 1 1.6.2.6.4 1.2.4 1.9s-.1 1.4-.4 2c-.2.6-.6 1.1-1 1.6-.4.4-.9.8-1.5 1.1-.6.1-1.2.3-1.9.3zm0-1.3c.5 0 1-.1 1.4-.3.4-.2.8-.5 1.1-.8.3-.3.5-.7.7-1.2s.2-.9.2-1.4c0-.5-.1-1-.2-1.4s-.4-.8-.7-1.2c-.3-.3-.6-.6-1.1-.8-.4-.2-.9-.3-1.4-.3-.5 0-1 .1-1.4.3-.4.2-.8.5-1.1.8-.3.3-.5.7-.7 1.2-.1.5-.1.9-.1 1.4 0 .5.1 1 .2 1.4.2.4.4.8.7 1.2.3.3.6.6 1.1.8.4.2.8.3 1.3.3zM81.4 4.4h5.9v1.2h-4.5v2.9h3.4v1.2h-3.4v4.1h-1.3v-9.4zM92.9 11.5c.1.1.3.3.4.5.2.2.3.3.6.4s.4.2.7.3c.3.1.5.1.8.1.6 0 1.1-.1 1.4-.4.3-.3.5-.7.5-1.1 0-.5-.2-.9-.6-1.2-.4-.3-1-.5-1.7-.6-.4-.1-.8-.2-1.1-.3s-.6-.3-.8-.6c-.2-.2-.4-.5-.6-.8-.1-.3-.2-.6-.2-1 0-.3.1-.7.2-1 .1-.3.3-.6.6-.8.3-.2.6-.4 1-.6s.8-.2 1.4-.2c.5 0 .9 0 1.2.1.3.1.6.2.8.4l.6.4c.1.2.2.3.3.4l-.9.8c-.1-.1-.1-.2-.3-.3s-.2-.2-.4-.3l-.6-.3s-.5-.1-.8-.1-.6 0-.8.1c-.2.1-.4.2-.5.3s-.2.3-.3.5c-.1.2-.1.3-.1.5s0 .4.1.6c.1.2.2.3.4.4l.8.3.9.3 1 .3c.3.1.6.3.9.5.3.2.5.5.6.8.2.3.2.7.2 1.2 0 .4-.1.8-.3 1.1s-.4.6-.7.9c-.3.2-.6.4-1 .6s-.7.3-1.2.3c-.4 0-.8-.1-1.2-.2s-.7-.2-1-.4c-.3-.2-.6-.3-.8-.5-.2-.2-.4-.4-.5-.6l1-.8zM101.2 4.4h3c.6 0 1.2.1 1.6.3.4.2.7.4 1 .7.2.3.4.6.5.9.1.3.1.7.1 1 0 .5-.1.9-.2 1.2-.2.4-.4.7-.7.9-.3.2-.6.4-1 .5-.4.1-.8.2-1.3.2h-1.7v3.7h-1.3v-9.4zm3 4.5c.6 0 1-.1 1.3-.4.3-.3.5-.7.5-1.2s-.2-.9-.5-1.3c-.3-.3-.8-.5-1.3-.5h-1.7v3.4h1.7zM111.3 4.4h1.4l3.7 9.3h-1.5l-1-2.6h-3.9l-1 2.6h-1.4l3.7-9.3zm2.1 5.6l-1.5-4.1-1.5 4.1h3zM126 12.1c-.1.2-.3.4-.5.6s-.5.4-.8.6-.7.4-1.1.5c-.4.1-.8.2-1.3.2-.7 0-1.3-.1-1.9-.4-.6-.2-1.1-.6-1.5-1-.4-.4-.7-.9-1-1.5-.2-.6-.3-1.2-.3-1.9s.1-1.3.3-1.9c.2-.6.5-1.1 1-1.6s.9-.8 1.5-1.1c.6-.3 1.2-.4 1.9-.4.5 0 .9.1 1.3.2s.7.3 1 .5l.8.6s.4.4.5.6l-1 .8c-.1-.2-.2-.3-.4-.5s-.3-.3-.6-.5-.5-.3-.7-.3c-.3-.1-.6-.1-1-.1-.5 0-1 .1-1.4.3-.4.2-.8.5-1 .8-.3.3-.5.7-.7 1.2-.1.4-.2.9-.2 1.4s.1 1 .2 1.4c.2.4.4.8.7 1.2.3.3.6.6 1 .8.4.2.8.3 1.3.3.4 0 .8-.1 1.1-.2.3-.1.6-.2.8-.4.2-.1.4-.3.5-.5.1-.2.2-.3.3-.4l1.2.7zM128.1 4.4h5.9v1.2h-4.5v2.7h3.4v1.2h-3.4v3h4.9v1.2h-6.2v-9.3zM136.6 18.8h-136c-.3 0-.6-.3-.6-.6s.3-.6.6-.6h136c.3 0 .6.3.6.6s-.3.6-.6.6z"/></svg>