<svg xmlns="http://www.w3.org/2000/svg" viewBox="0 0 364.5 300.2" enable-background="new 0 0 364.5 300.2"><path fill="#2A2A2A" d="M70.3 110.3h1.5c2.3 0 3.8-1.5 4.6-3.1 16.1-58.2 69.7-98.8 130.2-98.8 22.2 0 44.4 5.4 63.6 16.1 2.3 1.5 5.4 0 6.1-1.5.8-1.5 0-5.4-1.5-6.1-20.7-11.5-44.5-16.9-68.2-16.9-64.4 0-121.8 43.7-138.6 105.7-1.6.7 0 3.8 2.3 4.6zm-58.2 67.4c.8 1.5 2.3 3.1 4.6 3.1h1.5l17.6-6.1c2.3-.8 3.8-3.8 3.1-6.1l-2.3-5.4 11.5-3.8 2.3 5.4c.8 1.5 2.3 3.1 4.6 3.1h1.5l54.4-19.9v.8c.8.8 1.5 2.3 2.3 2.3l2.3.8h1.5l44.4-16.1c5.4 10 15.3 17.6 26 19.1-8.4 19.9-18.4 39.8-28.3 59.7-6.9 15.3-14.6 30.6-21.4 45.2-29.9-17.6-52.8-46.7-61.3-81.9-.8-2.3-3.1-3.8-5.4-3.1s-3.8 3.1-3.1 5.4c10 38.3 34.5 69.7 66.6 88.1-3.8 9.2-7.7 17.6-11.5 26-.8 2.3 0 5.4 2.3 6.1h1.5c1.5 0 3.8-.8 4.6-3.1 3.1-8.4 6.9-16.8 10.7-25.3 19.9 10 41.4 15.3 65.1 15.3 42.9 0 80.4-18.4 107.2-48.2 8.4 19.9 16.8 39.1 23.7 57.4.8 1.5 2.3 3.1 4.6 3.1h1.5c2.3-.8 3.8-3.8 3.1-6.1-6.9-19.9-16.1-41.4-25.3-62 19.1-24.5 29.9-55.1 29.9-88.1 0-19.9-3.8-39.8-12.3-58.2-.8-2.3-3.8-3.1-6.1-2.3-2.3.8-3.1 3.8-2.3 6.1 7.7 16.8 11.5 35.2 11.5 54.4 0 29.1-9.2 55.9-25.3 78.1l-3.8-7.7c-12.3-26.8-24.5-54.4-32.9-78.9-.8-1.5-2.3-3.1-4.6-3.1s-3.8.8-4.6 3.1l-36 89.6-26-73.5c7.7-3.8 13-9.2 16.8-16.8 3.1-7.7 3.8-15.3 2.3-23l10-3.8c.8.8 1.5 1.5 3.1 1.5h1.5l93.4-34.5.8 3.1c.8.8 1.5 2.3 2.3 2.3l2.3.8h1.5l17.6-6.1c2.3-.8 3.8-3.8 3.1-6.1l-23.6-64.6c-.8-2.3-3.8-3.8-6.1-3.1l-17.6 6.1c-.8.8-2.3 1.5-2.3 2.3-.8.8-.8 2.3 0 3.8l2.3 5.4-93.4 34.5c-.8.8-2.3 1.5-2.3 2.3v1.5l-121.8 44.5c-2.3.8-3.8 3.8-3.1 6.1v.8l-54.4 19.9c-.8.8-2.3 1.5-2.3 2.3-.8.8-.8 2.3 0 3.8l.8 3.1-11.5 3.8-2.3-5.4c-.8-2.3-3.8-3.8-6.1-3.1l-17.6 6.1c-.8.8-2.3 1.5-2.3 2.3-.8.8-.8 2.3 0 3.8l11.5 33.1zm227.4 57.4l34.5-86.5c8.4 22.2 19.1 45.9 29.1 68.2l5.4 12.3c-15.3 18.4-35.2 32.2-58.2 40.6l-11.5-33.7c.7-.1.7-.1.7-.9zm2.3 37.5c-11.5 3.1-23.7 5.4-36 5.4-21.4 0-42.1-5.4-61.3-14.6l21.4-45.9c10-21.4 20.7-42.9 29.9-63.6 1.5 0 2.3 0 3.8-.8l42.2 119.5zm-24.5-143.9c-2.3 5.4-6.1 9.2-11.5 12.3l-2.3-6.9c-.8-1.5-2.3-3.1-4.6-3.1-1.5 0-3.8.8-4.6 3.1l-4.6 10c-8.4-.8-16.8-5.4-21.4-13l50.5-18.4c1.6 5.2.8 11.4-1.5 16zm114.9-119.5l20.7 55.9-8.4 3.1-20.7-55.9 8.4-3.1zm-13.8 16.8l13.8 38.3-89.6 32.9-13.8-38.2 89.6-33zm-96.5 37.6l12.3 33.7-13 4.6-59.7 22.2-44.5 16v-.8l-10-28.3-1.5-4.6 116.4-42.8zm-124.1 51.3l5.4 15.3 3.1 8.4-49.8 18.4-2.3-6.9-5.4-13.8-.8-3.1 49.8-18.3zm-55.9 28.3l2.3 6.1-11.5 3.8-2.3-6.1 11.5-3.8zm-23.7-2.3l2.3 5.4.8 1.5 6.9 19.1-8.4 3.1-10-26 8.4-3.1z"/></svg>